<?xml version="1.0" encoding="utf-8"?>
<!-- Generator: Adobe Illustrator 19.2.1, SVG Export Plug-In . SVG Version: 6.00 Build 0)  -->
<svg version="1.1" id="Layer_1" xmlns="http://www.w3.org/2000/svg" xmlns:xlink="http://www.w3.org/1999/xlink" x="0px" y="0px"
	 viewBox="0 0 100 100" style="enable-background:new 0 0 100 100;" xml:space="preserve">
<style type="text/css">
	.st0{fill:none;enable-background:new    ;}
</style>
<path id="pov-loader-circle" class="st0" d="M50,50.9"/>
<path id="pov-loader-logo" d="M92.2,37.7v-0.2h3V37H61.5c-3-2.5-6.9-4.1-11.2-4.1v-2.2h-0.6V33c-4.1,0.1-7.9,1.6-10.9,4.1H8v0.2H7.8
	v1l0,0v0.8c0.3,0,0.7,0,1,0.1c0.3,0,0.6,0.1,1,0.2c0.3,0.1,0.6,0.3,0.8,0.5s0.4,0.5,0.6,0.8l0,0c-0.1,0-0.2,0-0.3,0
	c-0.1,0.3-0.3,0.6-0.4,0.8c-0.2,0.2-0.2,0.4-0.2,0.8c0,0.6,0.1,1,0.4,1.3c0.2,0.2,0.5,0.4,0.8,0.5v0.1v3.2h0.1v-3.1l0,0
	c0.3,0.1,0.6,0.2,1,0.3s0.7,0.2,0.9,0.4c0,0.4,0.2,0.8,0.3,1.2c0.2,0.4,0.3,0.7,0.3,1c0,0.2,0,0.4,0,0.6S14,48.2,14,48.4
	s-0.1,0.4-0.1,0.5c0,0.2,0,0.3,0,0.5c0,0.4,0.1,0.9,0.2,1.4c0.1,0.5,0.1,1,0.2,1.5c0,0.5,0.1,0.9,0.1,1.3c0,0.4,0.1,0.6,0.1,0.8
	s0,0.6,0,1.1c0,0.5,0,1.2,0,1.8c0,0.7-0.1,1.4-0.2,2.1c-0.1,0.7-0.3,1.3-0.5,1.8c-0.2,0.4-0.5,0.7-0.8,0.9c-0.4,0.2-0.7,0.3-1.1,0.4
	c-0.1,0-0.3,0.1-0.4,0.2c0.1-0.6,0.2-1.3,0.2-2.2h-0.1c0-0.4,0-0.9,0-1.2h-0.2c0,0.3,0,0.6,0,1c0,0.1,0,0.2,0,0.3c0,0.4,0,0.8,0,1.1
	c-0.1,0.5-0.1,0.9-0.3,1.3c-0.1,0.1-0.2,0.1-0.2,0.2c-0.2,0.1-0.3,0.4-0.3,0.6l-0.1,0.1c-0.3,0.2-0.7,0.3-1.1,0.4
	c-0.4,0.1-0.9,0.1-1.5,0.2v0.4H7.8v0.8h0.1v0.1h12v-0.2c0.3,0,0.6-0.1,1-0.2c0.4-0.1,0.7-0.3,0.9-0.5c0.2-0.2,0.4-0.6,0.4-1
	c0-0.5-0.2-0.9-0.6-1.1c-0.4-0.2-0.9-0.5-1.5-0.8c-0.3-0.2-0.5-0.4-0.6-0.7s-0.2-0.4-0.3-0.4l-0.5,0.6c-0.1-0.1-0.3-0.3-0.5-0.4
	c-0.2-0.1-0.4-0.2-0.5-0.4c0-0.3,0.1-0.6,0.2-0.8c0.2-0.3,0.2-0.4,0.2-0.6c-0.1-0.6-0.2-1.1-0.2-1.7c0-0.5,0.1-1,0.3-1.4
	c0.2-0.4,0.5-0.7,1-1c0.4-0.2,1.1-0.4,1.9-0.4c0.2,0,0.4,0,0.7,0.1c0.3,0,0.7,0.1,1,0.1c0.4,0,0.7,0.1,1,0.1s0.6,0,0.8,0
	c0.2,0,0.4-0.1,0.7-0.2c0.3-0.2,0.6-0.4,0.8-0.6c0.3-0.2,0.6-0.4,0.9-0.6s0.6-0.3,0.8-0.4c0.4-0.5,0.7-1,1-1.5l0,0l0.1-0.1
	c0.5-0.4,1-0.9,1.4-1.4h2.2c0,0.2,0,0.3,0,0.5c0,9.7,7.7,17.5,17.3,17.7v2.6h0.6v-2.5c9.7-0.1,17.6-8,17.6-17.8c0-0.2,0-0.3,0-0.5
	h3.1l0.5,1.1l0.1-0.1l-0.5-1h0.9l6.3,15.4h2.8l8.7-21.3c0.1-0.3,0.3-0.7,0.5-1.2s0.4-0.9,0.7-1.4c0.2-0.4,0.5-0.9,0.8-1.2
	c0.3-0.4,0.6-0.7,0.9-0.8c0.4-0.2,0.8-0.4,1.3-0.5c0.5-0.1,0.9-0.1,1.4-0.2v-1.3L92.2,37.7L92.2,37.7z M92.1,37.7h-7.7v0.5
	c-0.3,0-0.6,0-0.9,0v-0.6L92.1,37.7L92.1,37.7z M65.6,38.9c-0.5-0.5-1.3-0.8-2.3-0.9v-0.5h11.2v0.6c-1,0-1.7,0.1-2.1,0.2
	c-0.7,0.2-1.1,0.7-1.1,1.4c0,0.3,0.1,0.7,0.3,1.2c-0.6,0-1.2-0.1-1.8-0.1c-0.1,0.3-0.2,0.6-0.3,0.9c0,0.3-0.1,0.6,0,0.7
	c0.3,0.1,0.5,0.3,0.7,0.5s0.5,0.5,0.7,0.7s0.4,0.5,0.6,0.7s0.4,0.4,0.6,0.5c0,0.1-0.1,0.3-0.2,0.5c0.3,0.6,0.6,1.3,0.9,2
	s0.6,1.4,0.9,2.1c0,0,0,0.1,0.1,0.1h-1.7l-2.5-6c-0.3-0.6-0.5-1.2-0.8-1.8c-0.2-0.6-0.5-1.1-0.9-1.5c-0.4-0.4-0.8-0.8-1.3-1
	c-0.2-0.1-0.5-0.2-0.8-0.3C65.7,39,65.6,39,65.6,38.9z M84.5,38.3c0.4,0,0.7,0.1,1,0.2c0.3,0.1,0.6,0.3,0.8,0.6
	c-0.1,0-0.3-0.1-0.4-0.1c-0.4-0.1-0.9-0.1-1.3-0.2L84.5,38.3z M85.6,39.2c0.3,0,0.5,0.1,0.8,0.2c0.1,0.2,0.2,0.5,0.2,0.8
	c0,0.2,0,0.4-0.1,0.7V41c-0.5-0.1-1-0.1-1.5-0.1c-0.8,0-1.5,0-2.2,0.1c-0.7,0-1.4,0-1.9-0.1c0,0.1-0.1,0.4-0.2,0.6
	c-0.1,0.3-0.3,0.5-0.4,0.6c0.4,0.3,0.9,0.5,1.5,0.7s1,0.4,1.3,0.8c0.3,0.4,0.5,0.7,0.4,1c0,0.3-0.1,0.5-0.2,0.7s-0.1,0.4-0.1,0.6
	s0.2,0.4,0.5,0.7c-0.5,0.4-0.8,0.8-1,1.2c-0.2,0.4-0.3,0.8-0.4,1.3c-0.1,0.4-0.1,0.8-0.2,1.2c0,0.4-0.1,0.8-0.2,1.1
	c0.1,0.3,0.1,0.5,0,0.8c-0.2,0.3-0.4,0.5-0.6,0.7s-0.3,0.3-0.4,0.5c-0.3,0.3-0.3,0.7-0.3,1.1c0,0.4,0,0.8-0.1,1
	c-0.2,0.3-0.4,0.5-0.6,0.7s-0.4,0.3-0.6,0.4c-0.1-0.1-0.3-0.2-0.4-0.2h-0.1L78.7,56c0-0.2-0.1-0.4-0.1-0.6c0-0.4-0.1-0.7-0.1-1
	s0-0.7-0.1-1c0-0.3-0.1-0.6-0.2-0.8c-0.2-0.4-0.4-0.8-0.6-1.3c-0.3-0.4-0.4-0.8-0.4-1.1c0-0.4,0.1-0.6,0.3-0.7
	c0.2-0.1,0.4-0.2,0.5-0.3c-0.1,0-0.3-0.1-0.5-0.2c-0.2-0.1-0.4-0.2-0.5-0.4c0-0.3-0.1-0.6-0.3-0.9c-0.2-0.3-0.3-0.6-0.5-0.9
	s-0.3-0.6-0.5-0.8s-0.2-0.5-0.2-0.6c0-0.2,0-0.3,0-0.3c0-0.1,0-0.1,0-0.1l0,0v-0.1c0.2-0.1,0.4-0.3,0.6-0.5s0.5-0.4,0.7-0.6
	c0.3-0.2,0.5-0.4,0.8-0.6s0.6-0.4,0.9-0.5v-1.1l-0.4-0.4c-0.5,0-1,0-1.6,0c-0.5,0-1.1,0-1.8,0c-0.5,0-1.1,0-1.8-0.1
	c0-0.1,0-0.1,0-0.2c0-0.4,0.1-0.8,0.4-1s0.6-0.4,0.9-0.5c0.4-0.1,0.7-0.2,1.1-0.2s0.8,0,1.1-0.1v-1.3h-0.1V39
	c-0.3,0-0.7,0.1-1.1,0.1s-0.8,0.1-1.1,0.2c-0.4,0.1-0.6,0.3-0.9,0.5c-0.2,0.2-0.4,0.6-0.4,1c0,0.1,0,0.1,0,0.2c-0.1,0-0.3,0-0.4,0
	c-0.3,0-0.6,0-1,0c-0.2-0.5-0.3-0.9-0.3-1.2c0-0.7,0.3-1.1,1-1.3c0.3-0.1,0.7-0.2,1.1-0.2c0.5,0,0.8,0,1.1,0v-0.7h8.8v0.7
	c0.3,0,0.6,0,1,0.1v0.7C84.7,39.1,85.1,39.1,85.6,39.2z M86.5,39.4c0.1,0,0.2,0.1,0.3,0.1c0.4,0.2,0.7,0.4,0.9,0.7
	c0.2,0.3,0.4,0.7,0.4,1.3c-0.3-0.2-0.7-0.3-1-0.4c-0.2,0-0.4-0.1-0.6-0.1v-0.1c0.1-0.3,0.1-0.5,0.1-0.7
	C86.6,39.9,86.5,39.6,86.5,39.4z M83.5,53.7C83.5,53.7,83.6,53.7,83.5,53.7v0.2C83.5,53.9,83.5,53.8,83.5,53.7z M85.3,49.3
	c0-0.1,0-0.1-0.1-0.2c-0.1-0.1-0.1-0.3-0.1-0.4c0.2-0.3,0.3-0.6,0.5-0.9c0.1-0.3,0.2-0.7,0.4-1c0.1-0.4,0.2-0.7,0.3-1
	c0.1-0.3,0.2-0.6,0.3-0.7c0.1-0.2,0.3-0.5,0.6-0.8c0.1-0.1,0.1-0.2,0.2-0.2L85.3,49.3z M85.1,49.9L85,50.2C85,50.1,85,50,85.1,49.9z
	 M88.2,41.6L88.2,41.6c0-0.6-0.1-1-0.4-1.4c-0.2-0.3-0.5-0.6-0.9-0.8c-0.2-0.1-0.4-0.2-0.6-0.3c0,0,0-0.1-0.1-0.1
	c-0.2-0.3-0.4-0.5-0.7-0.6c-0.3-0.1-0.6-0.2-1-0.3c0,0,0,0-0.1,0v-0.4H92v0.2c-0.9,0.1-1.6,0.4-2,0.7c-0.6,0.5-1.2,1.5-1.8,2.9
	C88.3,41.6,88.3,41.6,88.2,41.6z M59.5,37.1h-5.4c-1.2-0.3-2.4-0.5-3.8-0.5v-2.4C53.7,34.2,56.9,35.3,59.5,37.1z M66.7,49.7h-1.9
	c-0.1-1.4-0.4-2.7-0.9-3.9c-0.7-1.8-1.7-3.3-2.9-4.6c-0.9-1-2-1.8-3.2-2.4c-0.7-0.5-1.5-0.9-2.3-1.2h4.7
	C63.8,40.4,66.3,44.7,66.7,49.7z M64.7,51.6c0,2-0.4,3.9-1.1,5.6c-0.7,1.7-1.8,3.2-3,4.4c-1.3,1.2-2.8,2.2-4.5,2.9
	c-1.7,0.7-3.6,1.1-5.6,1.1l0,0c-0.1,0-0.1,0-0.2,0v-0.2c3.5-0.1,6.6-1.2,9.1-3.6c2.6-2.4,4-5.5,4.3-9.3c0.1-0.6,0.1-1.2,0.1-1.7
	c0-0.2,0-0.3,0-0.5h0.9C64.7,50.7,64.7,51.2,64.7,51.6z M40.2,37.5h4.5c-1.5,0.6-2.9,1.5-4.1,2.7c-2.1,2.1-3.5,4.6-4,7.7
	c-0.1,0.6-0.3,1.2-0.3,1.8h-2.7C34,44.7,36.5,40.4,40.2,37.5z M40.4,61.3c-2.3-2.4-3.6-5.5-3.8-9.2c0.7,6.7,6.3,12,13.1,12.2v0.8
	C46,65.2,42.9,63.9,40.4,61.3z M62.9,50.8c0,7-5.6,12.6-12.6,12.7V50.3h12.6C62.9,50.5,62.9,50.6,62.9,50.8z M49.7,49.7H37.5
	c0.5-6.4,5.8-11.4,12.2-11.6C49.7,38.1,49.7,49.7,49.7,49.7z M37.4,50.3h12.3v13.2c-6.8-0.2-12.3-5.8-12.3-12.7
	C37.4,50.6,37.4,50.5,37.4,50.3z M50.3,49.7V38c6.6,0.1,12,5.2,12.5,11.7H50.3z M36.7,48.4c0-0.1,0-0.1,0-0.2c0,0,0,0,0-0.1
	C36.7,48.2,36.7,48.3,36.7,48.4z M50.3,64.4c6.2-0.1,11.4-4.2,13-9.9c-0.6,2.9-1.9,5.3-3.9,7.2c-2.5,2.3-5.5,3.5-9.1,3.6
	C50.3,65.3,50.3,64.4,50.3,64.4z M53.6,37.5H54c0.8,0.2,1.6,0.4,2.3,0.7c0.4,0.2,0.9,0.4,1.3,0.6c0.6,0.4,1.3,0.9,1.8,1.5
	c1.4,1.4,2.5,3.1,3.2,4.9C61,41.5,57.7,38.6,53.6,37.5z M54.6,37.5H55c0.5,0.2,1,0.4,1.4,0.6C55.8,37.9,55.2,37.7,54.6,37.5z
	 M51.7,37.1c-0.3,0-0.7,0-1,0c-0.1,0-0.2,0-0.3,0v-0.3c1.1,0,2.1,0.1,3.1,0.3H51.7z M49.7,37.1L49.7,37.1h-2.9
	c0.9-0.2,1.9-0.3,2.9-0.3V37.1z M46.7,37.5c-2,0.5-3.8,1.4-5.3,2.7c-0.4,0.3-0.7,0.6-1,0.9c-1.3,1.3-2.3,2.8-3.1,4.6
	c0.7-2.1,1.8-3.9,3.4-5.4c1.4-1.3,2.9-2.2,4.5-2.8H46.7z M36.4,51.2c0,1.9,0.3,3.7,0.9,5.3c-0.6-1.6-0.9-3.3-0.9-5
	C36.4,51.4,36.4,51.3,36.4,51.2z M38.1,58.3L38.1,58.3L38.1,58.3z M37.6,57.3c-0.1-0.1-0.1-0.2-0.2-0.3c0,0,0-0.1-0.1-0.1
	C37.5,57,37.6,57.2,37.6,57.3z M49.7,65.4v0.2c-1.6-0.1-3.2-0.4-4.6-1C46.5,65.1,48,65.3,49.7,65.4z M63.8,49.7
	c0-0.6-0.1-1.3-0.3-1.9c-0.5-3-1.8-5.5-3.9-7.5c-0.3-0.3-0.6-0.5-0.8-0.7c0.8,0.5,1.5,1.1,2.1,1.8c1.2,1.3,2.2,2.8,2.9,4.6
	c0.5,1.2,0.8,2.5,0.9,3.8h-0.9V49.7z M49.7,34.2v2.3c-1.3,0-2.5,0.2-3.7,0.5h-5.2C43.4,35.4,46.4,34.3,49.7,34.2z M21.1,37.5
	c0.6,0.1,1.3,0.1,1.9,0.2c-0.6,0-1.1-0.1-1.7-0.1H8v-0.2L21.1,37.5L21.1,37.5z M10.9,39.9c-0.4-0.5-1.2-0.9-2.4-1H8v-0.6
	c0.1,0,0.3,0,0.5,0c0.3,0,0.6,0.1,0.9,0.1c0.3,0.1,0.6,0.1,0.8,0.3c0.3,0.1,0.5,0.2,0.6,0.4c0.3,0.3,0.4,0.8,0.5,1.5l0,0
	C11.2,40.4,11.1,40.1,10.9,39.9z M11.6,40.7c-0.1-0.7-0.3-1.3-0.6-1.6c-0.5-0.5-1.5-0.8-3-0.9v-0.3h13.3c1,0,1.9,0.1,2.9,0.2
	c1.3,0.3,2.4,0.8,3.2,1.5c1.9,1.4,2.8,3.2,2.8,5.5c0,0.8-0.1,1.6-0.3,2.3c0-0.1,0-0.2,0-0.4c0-0.3-0.1-0.7-0.2-1.1
	c-0.1-0.4-0.2-0.7-0.3-1.1c-0.1-0.4-0.2-0.7-0.4-0.9c-0.1-0.2-0.4-0.5-0.7-0.8c-0.3-0.3-0.6-0.6-0.7-0.8c-0.2-0.3-0.5-0.5-0.9-0.6
	c-0.4-0.1-0.8-0.3-1.3-0.3c-0.4-0.1-0.8-0.1-1.2-0.1c-0.3-0.3-0.7-0.6-1.1-0.9c-0.7-0.4-1.5-0.8-2.4-1l0,0h-0.1l0,0
	c-1-0.2-1.9-0.3-2.9-0.3c-0.9,0-1.5,0.1-1.7,0.2c-0.2,0.2-0.4,0.7-0.4,1.3v0.3C14.4,40.7,13,40.7,11.6,40.7z M23.1,40.3
	c0.4,0.2,0.7,0.5,1,0.8c-0.4,0-0.7,0-1-0.1c-1.6-0.1-3.3-0.2-5.4-0.3c-0.6,0-1.2-0.1-1.9-0.1c0,0,0,0,0-0.1c0.1-0.2,0.2-0.4,0.3-0.5
	c0.2-0.2,0.5-0.3,0.9-0.4c0.4-0.1,0.8-0.2,1.3-0.2c0.4-0.1,0.9-0.1,1.3-0.1s0.8,0,1,0C21.6,39.6,22.4,39.9,23.1,40.3z M25.6,45.3
	c0,2.7-1,4.6-3,5.5c-0.7,0.4-1.7,0.6-2.7,0.7l-0.1-0.1c0-0.1-0.2-0.3-0.3-0.4c-0.2-0.2-0.4-0.3-0.8-0.5s-0.9-0.4-1.7-0.6
	c0-0.4,0-0.8,0.1-1.2c0.1-0.5,0.1-0.9,0.1-1.3c-0.3-0.1-0.5-0.3-0.5-0.6V45c0.3-0.1,0.6-0.2,1-0.3c0.4-0.1,0.9-0.2,1.3-0.4
	c0.1-0.1,0.3-0.3,0.4-0.5s0.3-0.4,0.4-0.5c0-0.1,0.2-0.1,0.5-0.1c0.1,0,0.3,0.1,0.5,0.2c0.2,0.1,0.4,0.2,0.6,0.4
	c0.2,0.1,0.4,0.3,0.6,0.4c0.2,0.1,0.4,0.2,0.6,0.2s0.3,0,0.4,0s0.1-0.1,0.2-0.1s0.1-0.1,0.2-0.1s0.2-0.1,0.4-0.1
	c0.2,0,0.4,0.1,0.6,0.2c0.2,0.2,0.5,0.4,0.8,0.6C25.3,45,25.4,45.2,25.6,45.3z M25.3,50.6c-0.2,0.2-0.4,0.3-0.6,0.5
	c-0.4,0.2-0.8,0.4-1.3,0.5c-0.8,0.1-1.8,0.2-2.8,0.2h-0.4c-0.1,0-0.2-0.1-0.3-0.1c0,0,0-0.1-0.1-0.1c1.1-0.1,2-0.4,2.7-0.7
	c2-1,3.1-2.8,3.1-5.6c0.1,0.1,0.2,0.2,0.3,0.3c0.3,0.3,0.6,0.5,0.9,0.7C26.8,48.2,26.2,49.7,25.3,50.6z M23.8,51.6
	c-0.6,0.3-1.3,0.4-2.1,0.4c-0.3,0-0.5,0-0.7,0c0.4,0,0.7,0,1.1,0c0.5,0,0.9-0.1,1.4-0.2C23.6,51.7,23.7,51.6,23.8,51.6z M19.7,39.3
	c-0.4,0-0.9,0.1-1.3,0.1c-0.5,0.1-0.9,0.1-1.3,0.2s-0.7,0.2-0.9,0.4c-0.1,0.1-0.2,0.3-0.3,0.4v-0.1c0-0.6,0.1-1,0.3-1.1
	c0.2-0.2,0.7-0.2,1.6-0.2c0.8,0,1.6,0.1,2.3,0.2C19.9,39.3,19.8,39.3,19.7,39.3z M29.9,49.2c0.1-0.4,0.2-0.9,0.2-1.3
	c0.3-0.8,0.4-1.7,0.4-2.7c0-2.3-1-4.2-2.9-5.6c-0.7-0.5-1.6-1-2.5-1.3c1.1,0.2,2.2,0.6,3.2,1.2c1.1,0.7,2,1.6,2.7,2.6
	c0.6,1.1,0.9,2.2,0.9,3.5c0,1.2-0.3,2.3-0.8,3.4c-0.1,0.3-0.3,0.6-0.5,0.8h-0.8C29.7,49.5,29.8,49.3,29.9,49.2z M8,64.4h0.3
	c0.5,0,1.1-0.1,1.6-0.3c0.2-0.1,0.4-0.2,0.6-0.3v0.1c0,0,0,0,0,0.1c-0.1,0.1-0.2,0.1-0.3,0.2c-0.3,0.1-0.6,0.2-0.9,0.3
	c-0.3,0.1-0.6,0.1-0.9,0.2c-0.2,0-0.3,0-0.5,0.1L8,64.4L8,64.4z M19.8,65.5h-1H8v-0.7c1.1-0.1,2-0.3,2.5-0.6c0,0.2,0.1,0.3,0.2,0.4
	c0.1,0.1,0.2,0.2,0.2,0.3c0.7,0.1,1.5,0.1,2.3,0.2c0.9,0.1,1.7,0.1,2.5,0.2c0.8,0.1,1.5,0.1,2,0.2c0.6,0,1,0.1,1.2,0.1
	C19.1,65.5,19.4,65.5,19.8,65.5L19.8,65.5L19.8,65.5z M28.9,51.4c0.2-0.3,0.4-0.6,0.5-0.9c0-0.1,0-0.1,0.1-0.2h0.6
	C29.7,50.7,29.3,51.1,28.9,51.4z M30.7,49.7c0.2-0.2,0.3-0.5,0.4-0.8c0.5-1.1,0.8-2.2,0.8-3.4c0-1.3-0.3-2.6-1-3.6
	c-0.6-1.1-1.5-2-2.6-2.7c-1.1-0.6-2.2-1-3.4-1.2c-0.3,0-0.5-0.1-0.8-0.1c-0.6-0.1-1.1-0.3-1.8-0.4h16c-3.4,3-5.6,7.3-5.9,12.1
	L30.7,49.7L30.7,49.7z M33.6,50.8c0-0.2,0-0.3,0-0.5h2.6c0,0.4-0.1,0.8-0.1,1.1c0,2,0.4,3.9,1.1,5.6c0.7,1.7,1.7,3.2,3,4.5
	s2.8,2.3,4.5,3c1.5,0.6,3.1,1,4.8,1.1v1.6C40.8,67,33.6,59.7,33.6,50.8z M66.7,50.8c0,9.1-7.3,16.5-16.4,16.5v-1.6
	c0.1,0,0.1,0,0.2,0c2,0,3.9-0.4,5.6-1.1c1.7-0.7,3.3-1.7,4.6-3s2.3-2.7,3.1-4.5c0.7-1.7,1.1-3.6,1.1-5.6c0-0.4,0-0.9-0.1-1.3h1.9
	C66.7,50.5,66.7,50.6,66.7,50.8z M67.9,49.7c-0.3-4.8-2.5-9.1-5.9-12.1h1.1v0.7c0.4,0,0.8,0.1,1.2,0.2c0.4,0.1,0.8,0.3,1.1,0.6
	c-0.3-0.1-0.6-0.1-1-0.1v0.1c0.4,0,0.8,0.1,1.1,0.2c0.2,0.3,0.5,0.6,0.8,1.1c0.4,0.6,0.8,1.4,1.2,2.4l3.1,7L67.9,49.7L67.9,49.7z
	 M70.9,49.7l-3.1-7c-0.7-1.6-1.3-2.7-1.9-3.4c0.2,0.1,0.4,0.1,0.6,0.2c0.5,0.3,0.9,0.6,1.3,1c0.3,0.4,0.6,0.9,0.8,1.5
	c0.2,0.6,0.5,1.1,0.7,1.8l2.4,5.9H70.9z M72.1,50.3h1.7c0.2,0.5,0.3,0.9,0.5,1.4c0.2,0.7,0.4,1.5,0.4,2.3c0,0.1,0,0.3,0.2,0.4
	c0.1,0.2,0.2,0.3,0.3,0.4c0.1,0.1,0.2,0.2,0.3,0.3c0.1,0.1,0.2,0.2,0.2,0.2c0.1,0.6,0.2,1.2,0.3,1.7c0.1,0.6,0.3,1.1,0.4,1.6
	c0.2,0.1,0.4,0.3,0.6,0.6c0.1,0.5,0.2,1,0.3,1.6c0.1,0.6,0.2,1.1,0.3,1.6c0.1,0.5,0.2,1,0.3,1.4c0.1,0.4,0.3,0.8,0.4,1
	c0.1,0.2,0.3,0.4,0.6,0.5h-0.6L72.1,50.3z M95.3,38.9c-0.5,0-0.9,0.1-1.4,0.2c-0.4,0.1-0.9,0.3-1.3,0.5s-0.7,0.5-1,0.8
	c-0.3,0.4-0.6,0.8-0.8,1.2c-0.2,0.4-0.5,0.9-0.7,1.4s-0.4,0.9-0.5,1.2l-8.7,21.3h-0.5c0.1-0.1,0.2-0.1,0.3-0.2
	c0.2-0.2,0.4-0.6,0.5-1c0.1-0.4,0.3-0.8,0.3-1.3c0.1-0.5,0.1-0.9,0.2-1.4c0-0.5,0.1-0.9,0.1-1.3c0-0.4,0.1-0.7,0.2-1
	s0.3-0.6,0.5-0.8s0.4-0.4,0.4-0.5c0.2-0.6,0.3-1.3,0.4-2c0-0.5,0-1,0.1-1.6l0.4-0.9c0.3-0.3,0.5-0.5,0.6-0.8
	c0.2-0.4,0.2-0.7,0.3-1.1c0-0.2,0-0.4,0.1-0.6l2.9-7.2c0-0.1,0-0.1,0.1-0.2c0-0.1,0.1-0.1,0.1-0.2c0.2-0.3,0.4-0.5,0.6-0.7
	s0.3-0.4,0.3-0.6c-0.1-0.1-0.2-0.2-0.3-0.3c0.6-1.4,1.1-2.3,1.7-2.8c0.3-0.3,0.6-0.4,1-0.5c0.4-0.1,0.7-0.2,1.1-0.2v-0.5h3
	C95.3,37.8,95.3,38.9,95.3,38.9z"/>
</svg>
